<svg id="Layer_1" data-name="Layer 1" xmlns="http://www.w3.org/2000/svg" viewBox="0 0 1693 659"><defs><style>.cls-1{font-size:247px;}.cls-1,.cls-4{fill:#fff;}.cls-1,.cls-2{font-family:GravesendSans-Bold, Gravesend Sans;font-weight:700;}.cls-2{font-size:78px;}.cls-2,.cls-6{fill:#f3783c;}.cls-3{letter-spacing:-0.01em;}.cls-5{fill:#2d7592;}.cls-7{fill:#383838;}.cls-8{fill:#c5d081;}.cls-9{fill:#899237;}.cls-10{fill:#6ccef4;}.cls-10,.cls-11,.cls-12{stroke:#fff;stroke-miterlimit:10;stroke-width:3.8px;}.cls-11,.cls-12{fill:#333;}.cls-11{fill-rule:evenodd;}</style></defs><text class="cls-1" transform="translate(668.73 359.27)">Ammon</text><text class="cls-2" transform="translate(661 440.16)">cHAMBER OF cOMME<tspan class="cls-3" x="850.97" y="0">R</tspan><tspan x="904.01" y="0">CE</tspan></text><path class="cls-4" d="M353.44,76.67A243.35,243.35,0,1,1,110.12,320c0-3,0-6.11.16-9.12A243.35,243.35,0,0,1,353.44,76.67m0-34.67C203.39,42,81.1,160.89,75.63,309.61c-.12,3.44-.19,6.91-.19,10.39,0,123.74,80.86,228.61,192.61,264.63a279.17,279.17,0,0,0,190.61-7.23C560,535.92,631.44,436.3,631.44,320a276.81,276.81,0,0,0-28.16-122C558.09,105.6,463.2,42,353.44,42Z"/><path class="cls-5" d="M352.88,565.05a241.79,241.79,0,1,1,171-70.82A240.21,240.21,0,0,1,352.88,565.05Z"/><path class="cls-4" d="M352.88,88.46a234,234,0,1,1-91.38,18.45,233.3,233.3,0,0,1,91.38-18.45m0-14c-137.42,0-248.83,111.4-248.83,248.83S215.46,572.08,352.88,572.08,601.72,460.67,601.72,323.24,490.31,74.41,352.88,74.41Z"/><circle class="cls-6" cx="393.14" cy="290.59" r="148.03"/><path class="cls-7" d="M393.14,150.48a140.12,140.12,0,1,1-99.07,41,139.19,139.19,0,0,1,99.07-41m0-15.84a156,156,0,1,0,156,156,156,156,0,0,0-156-155.95Z"/><path class="cls-8" d="M366.2,550.21A270.48,270.48,0,0,1,108.08,361.36,251.19,251.19,0,0,1,105,321.87c0-3,.05-6.09.17-9.27a248,248,0,0,1,5.39-43.15A272.69,272.69,0,0,1,463.83,529.92c0,.72,0,1.44,0,2.15A269.13,269.13,0,0,1,366.2,550.21Z"/><path class="cls-7" d="M191.22,265.23a263.58,263.58,0,0,1,164.65,57.44A267.35,267.35,0,0,1,428.76,413a262.07,262.07,0,0,1,27.13,113.58A262.88,262.88,0,0,1,115.82,359.52a242.28,242.28,0,0,1-2.94-37.65c0-2.88.06-5.9.17-9a239.45,239.45,0,0,1,4.28-37.22,265,265,0,0,1,73.89-10.45m0-15.85a280.26,280.26,0,0,0-87.44,13.9,255.38,255.38,0,0,0-6.57,49q-.18,4.76-.18,9.55a258.1,258.1,0,0,0,3.32,41.32,278.92,278.92,0,0,0,371.3,174.29q.11-3.76.1-7.56A280.54,280.54,0,0,0,191.22,249.38Z"/><path class="cls-9" d="M352.55,569.46a246.95,246.95,0,0,1-193.66-93.31A383.52,383.52,0,0,1,591.17,336.27,258.39,258.39,0,0,1,478,527.79a260.14,260.14,0,0,1-106.13,40.92C365.5,569.21,359,569.46,352.55,569.46Z"/><path class="cls-7" d="M470.5,324.61a372.26,372.26,0,0,1,112.15,17.23A250.49,250.49,0,0,1,473.58,521.2,252.21,252.21,0,0,1,371,560.83c-6.08.47-12.28.71-18.43.71A239.56,239.56,0,0,1,168.9,475.87,375.88,375.88,0,0,1,470.49,324.61h0m0-15.85A391.69,391.69,0,0,0,149,476.37a255,255,0,0,0,203.53,101q10.18,0,20.19-.8h.05A265.88,265.88,0,0,0,599.53,330.76a388.68,388.68,0,0,0-129-22Z"/><path class="cls-7" d="M352.55,89.81A232.05,232.05,0,0,1,371,553.2l-1.31.1c-5.65.42-11.4.63-17.1.63A231.8,231.8,0,0,1,120.49,321.87c0-2.78.05-5.71.16-8.69a232.79,232.79,0,0,1,6-44.54,230.09,230.09,0,0,1,30-71.16,231.67,231.67,0,0,1,196-107.67m0-23.45c-121,0-222.29,84-248.77,196.92a255.38,255.38,0,0,0-6.57,49q-.18,4.76-.18,9.55a258.1,258.1,0,0,0,3.32,41.32,255.3,255.3,0,0,0,252.2,214.2q10.18,0,20.19-.8h.05a253.74,253.74,0,0,0,76.46-18.14c93.17-38.12,158.81-129.69,158.81-236.58A255.37,255.37,0,0,0,352.55,66.36Z"/><path class="cls-10" d="M432.27,266.78c-4.53,1.89-11.18,2.59-14.78,1.57a22.88,22.88,0,0,1-8.95-5.91,17.92,17.92,0,0,1-3.26-12.36c.64-7.33,6.32-12.8,13.36-12.85,4.54,0,7.81,1.22,10.31,3.93,1.05,1.14,1.32,1.72,1.78,3.87a7.67,7.67,0,0,1-1.41,7.07c-2.19,3-6.7,3.57-9,1-1-1.08-.51-1.47.94-.81a5.13,5.13,0,0,0,5.26-.72c2-1.92,1.83-6-.27-8-2.55-2.49-8.3-2.69-11.52-.4-4.07,2.9-5,8.7-2.17,13.82,2.39,4.37,9.3,6.44,14.46,4.33,6.25-2.54,8.76-8.14,7.11-15.86-1.78-8.34-8.89-15.11-18.46-17.57-11.28-2.9-18.58-1.17-28.2,6.69-1.89,1.55-7.18,6.35-11.76,10.68-15,14.16-20.58,17.93-29.32,19.79a23.76,23.76,0,0,1-12.77-.29c-7.9-2.25-16-7.49-20.41-13.26a31.78,31.78,0,0,1-6.11-22.05c.43-5.06,2-10.19,2.87-9.61a11.48,11.48,0,0,1-.1,3.51,35.24,35.24,0,0,0,.46,12.29c2,9.42,7.09,15.72,16.26,20.28,11.41,5.67,19.88,4.54,30.61-4.08a164.73,164.73,0,0,0,12.76-12c17.86-18.36,26.71-23,40.63-21.49,11.64,1.3,22.41,7.31,27.23,15.21,3.56,5.84,5.39,16.24,3.84,21.84-1.39,5-5.19,9.6-9.43,11.37Zm-77.4,11.28c-.54.21-2.88.73-5.2,1.17-13.9,2.59-26.39-1.58-36.35-12.14-4.4-4.66-8.54-11-10-15.3-.46-1.35-1.13-3.26-1.48-4.25-.57-1.64-.57-1.76,0-1.38A13.56,13.56,0,0,1,304,249c5.94,9.83,13.86,17.67,21.85,21.65a36.26,36.26,0,0,0,34.32-1.49c5.13-3,9-6.64,16.56-15.5,9.38-10.95,13.52-14.59,19.66-17.28,4.23-1.85,10.25-2.59,9.75-1.19a7.28,7.28,0,0,1-2.32,1c-8.33,2.65-12.9,6.54-21.61,18.4-10.1,13.77-16.6,19.34-27.3,23.43Zm-5-28.38a26.15,26.15,0,0,1-14.52,1.42c-3.73-.7-8.88-2.84-9.08-3.77-.16-.73.28-.7,4,.36a23.46,23.46,0,0,0,12.87.52c7.29-1.62,12.1-5.12,24.43-17.8,9.41-9.67,12.9-12.84,17.56-16,10.81-7.26,21.9-8.14,33.81-2.67,6.76,3.1,16,9.84,14.05,10.26a16.1,16.1,0,0,1-3.18-1.51,79.34,79.34,0,0,0-10.74-5.36c-11-4.39-20.32-3.93-29.1,1.46-5.34,3.27-9.73,7.07-18.23,15.81-9.84,10.13-15.37,14.48-21.89,17.25Z"/><path class="cls-11" d="M474,237.31c17.36-.22,44.86,3.33,44.47,5.88s-21.51,5.88-44.3,5.66c3.66-7-.17-11.54-.17-11.54Z"/><path class="cls-12" d="M464,237.31a5.77,5.77,0,1,1-5.71,5.77A5.75,5.75,0,0,1,464,237.31Z"/><path class="cls-12" d="M469.77,336.28H458.32v-61.2l11.45-18.63Z"/><path class="cls-11" d="M464.05,254.63c-8.47,15.15-25.28,37.21-27.3,35.6S442.4,268.65,454,249c4.27,6.69,10.07,5.61,10.07,5.61Z"/><path class="cls-11" d="M453.89,237.73c-8.86-14.92-19.53-40.52-17.12-41.46s15.83,15.7,27,35.55c-7.93.35-9.91,5.91-9.91,5.91Z"/></svg>